<svg width="18" height="11" viewBox="0 0 18 11" fill="none" xmlns="http://www.w3.org/2000/svg">
<path fill-rule="evenodd" clip-rule="evenodd" d="M17.4016 9.74467H16.9802C16.469 9.74467 16.4887 9.25741 16.4887 9.25741C16.4887 9.25741 16.4853 9.25854 16.4845 9.25854C16.1999 6.39742 14.3361 4.00698 11.7752 2.96583C11.7679 2.96217 11.7628 2.95852 11.7555 2.95514C11.3402 2.77351 11.3304 2.36667 11.3304 2.36667V1.27463C11.3304 0.571164 10.7605 0.00012207 10.0562 0.00012207H7.77225C7.06849 0.00012207 6.49772 0.571164 6.49772 1.27463V2.5289C6.48619 2.63406 6.42405 2.80866 6.15245 2.92365C6.13501 2.93125 6.1218 2.93856 6.10774 2.94502C3.52523 3.97211 1.63916 6.36621 1.34534 9.23858L1.34197 9.23745C1.34197 9.23745 1.2998 9.74467 0.815064 9.74467H0.499596C0.3995 9.74692 0.000244141 9.78206 0.000244141 10.1937V10.5229C0.00614864 10.6641 0.0674429 11.0001 0.529681 11.0001H17.2785C17.7365 11.0001 17.8161 10.7037 17.8279 10.5553V10.2201C17.8279 9.82424 17.545 9.75451 17.4016 9.74467ZM10.4105 2.02802C10.408 2.12981 10.3692 2.50574 9.89766 2.46188C9.87179 2.45934 9.85464 2.46019 9.83721 2.46103C9.53413 2.42364 9.22823 2.39861 8.91447 2.39861C8.55768 2.39861 8.20877 2.4332 7.86464 2.48184C7.84074 2.48071 7.81319 2.48184 7.77917 2.48606C7.40495 2.53048 7.33944 2.29598 7.33044 2.17564V1.59501C7.33044 1.14625 7.6937 0.782413 8.1427 0.782413H9.59851C10.0472 0.782413 10.4108 1.14625 10.4108 1.59501V2.02802H10.4105ZM13.8953 9.73841H13.2517C12.9224 9.73841 12.8387 9.56156 12.8195 9.43784C12.8195 9.40832 12.8181 9.36783 12.8164 9.32004V9.32004V9.32004C12.7945 8.67392 12.6292 6.45668 11.4033 4.70278L11.4092 4.7025L11.2675 4.46239C11.2523 4.3741 11.2577 4.24561 11.4742 4.42584C12.5367 5.3413 14.1073 7.08479 14.1975 9.46484C14.1916 9.56802 14.1458 9.73841 13.8953 9.73841Z" fill="white"/>
</svg>
